<svg id="visual" viewBox="0 0 900 600" width="900" height="600" xmlns="http://www.w3.org/2000/svg" xmlns:xlink="http://www.w3.org/1999/xlink" version="1.1"><rect x="0" y="0" width="900" height="600" fill="#F0DDBC"></rect><path d="M0 445L18.8 443.5C37.7 442 75.3 439 112.8 428.2C150.3 417.3 187.7 398.7 225.2 394.3C262.7 390 300.3 400 337.8 399.5C375.3 399 412.7 388 450.2 386.5C487.7 385 525.3 393 562.8 398.7C600.3 404.3 637.7 407.7 675.2 404.2C712.7 400.7 750.3 390.3 787.8 393.2C825.3 396 862.7 412 881.3 420L900 428L900 601L881.3 601C862.7 601 825.3 601 787.8 601C750.3 601 712.7 601 675.2 601C637.7 601 600.3 601 562.8 601C525.3 601 487.7 601 450.2 601C412.7 601 375.3 601 337.8 601C300.3 601 262.7 601 225.2 601C187.7 601 150.3 601 112.8 601C75.3 601 37.7 601 18.8 601L0 601Z" fill="#394156"></path><path d="M0 424L18.8 421.8C37.7 419.7 75.3 415.3 112.8 423.8C150.3 432.3 187.7 453.7 225.2 459.3C262.7 465 300.3 455 337.8 443.2C375.3 431.3 412.7 417.7 450.2 412.7C487.7 407.7 525.3 411.3 562.8 417C600.3 422.7 637.7 430.3 675.2 433.8C712.7 437.3 750.3 436.7 787.8 433.7C825.3 430.7 862.7 425.3 881.3 422.7L900 420L900 601L881.3 601C862.7 601 825.3 601 787.8 601C750.3 601 712.7 601 675.2 601C637.7 601 600.3 601 562.8 601C525.3 601 487.7 601 450.2 601C412.7 601 375.3 601 337.8 601C300.3 601 262.7 601 225.2 601C187.7 601 150.3 601 112.8 601C75.3 601 37.7 601 18.8 601L0 601Z" fill="#4f576d"></path><path d="M0 478L18.8 480C37.7 482 75.3 486 112.8 488.3C150.3 490.7 187.7 491.3 225.2 491C262.7 490.7 300.3 489.3 337.8 486.8C375.3 484.3 412.7 480.7 450.2 483.5C487.7 486.3 525.3 495.7 562.8 496C600.3 496.3 637.7 487.7 675.2 487C712.7 486.3 750.3 493.7 787.8 487.5C825.3 481.3 862.7 461.7 881.3 451.8L900 442L900 601L881.3 601C862.7 601 825.3 601 787.8 601C750.3 601 712.7 601 675.2 601C637.7 601 600.3 601 562.8 601C525.3 601 487.7 601 450.2 601C412.7 601 375.3 601 337.8 601C300.3 601 262.7 601 225.2 601C187.7 601 150.3 601 112.8 601C75.3 601 37.7 601 18.8 601L0 601Z" fill="#666e84"></path><path d="M0 536L18.8 533.7C37.7 531.3 75.3 526.7 112.8 524.3C150.3 522 187.7 522 225.2 522.3C262.7 522.7 300.3 523.3 337.8 517C375.3 510.7 412.7 497.3 450.2 491.5C487.7 485.7 525.3 487.3 562.8 495.2C600.3 503 637.7 517 675.2 522.7C712.7 528.3 750.3 525.7 787.8 525C825.3 524.3 862.7 525.7 881.3 526.3L900 527L900 601L881.3 601C862.7 601 825.3 601 787.8 601C750.3 601 712.7 601 675.2 601C637.7 601 600.3 601 562.8 601C525.3 601 487.7 601 450.2 601C412.7 601 375.3 601 337.8 601C300.3 601 262.7 601 225.2 601C187.7 601 150.3 601 112.8 601C75.3 601 37.7 601 18.8 601L0 601Z" fill="#7e869c"></path><path d="M0 569L18.8 566.3C37.7 563.7 75.3 558.3 112.8 556C150.3 553.7 187.7 554.3 225.2 555.8C262.7 557.3 300.3 559.7 337.8 557.7C375.3 555.7 412.7 549.3 450.2 547C487.7 544.7 525.3 546.3 562.8 548.5C600.3 550.7 637.7 553.3 675.2 552.2C712.7 551 750.3 546 787.8 544.3C825.3 542.7 862.7 544.3 881.3 545.2L900 546L900 601L881.3 601C862.7 601 825.3 601 787.8 601C750.3 601 712.7 601 675.2 601C637.7 601 600.3 601 562.8 601C525.3 601 487.7 601 450.2 601C412.7 601 375.3 601 337.8 601C300.3 601 262.7 601 225.2 601C187.7 601 150.3 601 112.8 601C75.3 601 37.7 601 18.8 601L0 601Z" fill="#969eb4"></path></svg>